# xmcd CD database file
#
# Track frame offsets:
#	150
#	26495
#	48505
#	72287
#	96060
#	119957
#	142580
#	163667
#	185995
#	206365
#	231825
#
# Disc length: 3383 seconds
#
# Revision: 0
# Processed by: cddbd v1.5.1PL0 Copyright (c) Steve Scherf et al.
# Submitted via: CDex 1.51
#
DISCID=9c0d350b
DTITLE=Jean Marc Padovani et le quintet Chants du monde - De Nulle Part
DYEAR=2001
DGENRE=Jazz
TTITLE0=Fils d'Orégon
TTITLE1=Soleart
TTITLE2=Snake
TTITLE3=Tolka Polka
TTITLE4=Psaume
TTITLE5=Pas de là
TTITLE6=Rocaille
TTITLE7=Kyte by night
TTITLE8=Prologue
TTITLE9=Porteurs de Peau
TTITLE10=Petit matin
EXTD=YEAR: 2001
EXTT0=
EXTT1=
EXTT2=
EXTT3=
EXTT4=
EXTT5=
EXTT6=
EXTT7=
EXTT8=
EXTT9=
EXTT10=
PLAYORDER=
